Coordinates
version=1
nRows=29
nColumns=24
inDegrees=yes

Units are S.I. units (second, meters, Newtons, ...)
Angles are in degrees.

endheader
time	pelvis_tilt	pelvis_list	pelvis_rotation	pelvis_tx	pelvis_ty	pelvis_tz	hip_flexion_r	hip_adduction_r	hip_rotation_r	knee_angle_r	ankle_angle_r	subtalar_angle_r	mtp_angle_r	hip_flexion_l	hip_adduction_l	hip_rotation_l	knee_angle_l	ankle_angle_l	subtalar_angle_l	mtp_angle_l	lumbar_extension	lumbar_bending	lumbar_rotation
      4.43000000	    -10.02451010	      1.94151053	     -2.40034021	     -1.90066314	     -0.01352176	      0.42158802	     34.58407086	     -1.41354334	     -3.51159241	    -41.82134991	    -12.37007759	    -13.95434582	     10.74074604	      6.28615889	      5.70294593	     10.00606981	    -10.63194348	      3.74300497	     -0.45101248	      5.57596382	      7.45149059	     -1.03731512	     -3.88425124
      4.43500000	    -10.04958341	      1.80681442	     -1.97968666	     -1.89496286	     -0.01379276	      0.42144791	     34.62831433	     -1.48363916	     -3.88218863	    -39.92477616	    -11.89631411	    -13.11352718	     10.83617617	      5.77206915	      5.57576590	     10.31435379	    -10.37599288	      3.93508158	     -0.27241208	      5.56226646	      7.38202061	     -1.02930730	     -4.33251063
      4.44000000	    -10.10133808	      1.67547348	     -1.57566605	     -1.88921019	     -0.01413041	      0.42133280	     34.66107665	     -1.55003500	     -4.23309431	    -37.96613693	    -11.43913841	    -12.19003068	     10.98672406	      5.29123174	      5.44235937	     10.59366670	    -10.13053326	      4.13815415	     -0.07561076	      5.57635373	      7.34681260	     -1.01898338	     -4.70680727
      4.44500000	    -10.17173336	      1.54706033	     -1.18666208	     -1.88339292	     -0.01451712	      0.42126207	     34.67577297	     -1.61611892	     -4.58407306	    -35.95543126	    -11.00880657	    -11.18416192	     11.18001429	      4.82826058	      5.30056188	     10.84011569	     -9.88175456	      4.34124514	      0.14142819	      5.61289637	      7.33932946	     -1.00967772	     -5.00978606
      4.45000000	    -10.17862338	      1.44790439	     -0.74873652	     -1.87762762	     -0.01486674	      0.42118260	     34.57836502	     -1.72718149	     -4.88141293	    -33.90380842	    -10.52877648	    -10.06544775	     11.36908787	      4.32981474	      5.19199124	     11.08042384	     -9.68469614	      4.54318363	      0.39048001	      5.65164343	      7.25107592	     -1.04713084	     -5.42123950
      4.45500000	    -10.23412018	      1.33935294	     -0.36326619	     -1.87172556	     -0.01529057	      0.42117611	     34.50000615	     -1.80810447	     -5.18704201	    -31.82143764	    -10.12847139	     -8.91101380	     11.55020800	      3.86041246	      5.05591057	     11.27942238	     -9.45396477	      4.73860021	      0.64707191	      5.70890107	      7.23630783	     -1.06198904	     -5.69266684
      4.46000000	    -10.19400070	      1.27113340	      0.09431252	     -1.86592289	     -0.01564049	      0.42112821	     34.28206854	     -1.96083359	     -5.46108949	    -29.72943341	     -9.67268617	     -7.66963439	     11.67072037	      3.33757851	      4.96882857	     11.48509022	     -9.30425804	      4.93651768	      0.94776714	      5.77512795	      7.09755477	     -1.13866096	     -6.09487819
      4.46500000	    -10.20496774	      1.19598945	      0.50970126	     -1.85996795	     -0.01607303	      0.42113852	     34.08467383	     -2.08956551	     -5.75689719	    -27.62253869	     -9.27487794	     -6.44109369	     11.78665808	      2.85322110	      4.86168200	     11.63620989	     -9.13570337	      5.12545317	      1.24786313	      5.86819709	      7.03869228	     -1.19542859	     -6.39197808
      4.47000000	    -10.23139256	      1.12259235	      0.89520074	     -1.85395249	     -0.01653319	      0.42119698	     33.88061847	     -2.20555026	     -6.04827074	    -25.52391679	     -8.96105632	     -5.21573992	     11.87730836	      2.38161894	      4.74552911	     11.77909865	     -8.96556072	      5.30107598	      1.56323280	      5.97914523	      7.00488952	     -1.24804727	     -6.63839245
      4.47500000	    -10.19955789	      1.06948268	      1.33313606	     -1.84796008	     -0.01695269	      0.42123239	     33.58333042	     -2.36792416	     -6.38043066	    -23.44619969	     -8.62371210	     -3.99045215	     11.91920755	      1.88285287	      4.65173253	     11.91365347	     -8.85658962	      5.47991911	      1.90765664	      6.11452348	      6.90077258	     -1.33275786	     -6.94041681
      4.48000000	    -10.14090024	      1.02544916	      1.76159993	     -1.84189887	     -0.01736399	      0.42127488	     33.23374008	     -2.53232475	     -6.74565939	    -21.40278305	     -8.29573402	     -2.80673638	     11.88131059	      1.36630040	      4.56342128	     12.03247348	     -8.77998172	      5.65290927	      2.25556999	      6.25435356	      6.78131593	     -1.41299282	     -7.24478168
      4.48500000	    -10.08068022	      0.99021887	      2.18517060	     -1.83581396	     -0.01778618	      0.42138193	     32.87210320	     -2.69222413	     -7.11569707	    -19.42036544	     -8.00336229	     -1.69218387	     11.77053525	      0.86030069	      4.47522730	     12.13544075	     -8.72533293	      5.80139930	      2.59652418	      6.39084311	      6.66028573	     -1.51571012	     -7.52642512
      4.49000000	    -10.05782723	      0.92845239	      2.57893405	     -1.82961171	     -0.01826485	      0.42151141	     32.54071899	     -2.81130044	     -7.55172478	    -17.49872199	     -7.76965618	     -0.63030626	     11.69127259	      0.39765901	      4.35159904	     12.25421411	     -8.69305108	      5.95577815	      2.93898503	      6.56178920	      6.60216161	     -1.57169286	     -7.74638074
      4.49500000	     -9.99548987	      0.89276196	      2.98904788	     -1.82340719	     -0.01871275	      0.42166997	     32.16579155	     -2.95004744	     -7.99597360	    -15.67301451	     -7.52560571	      0.35103335	     11.54806366	     -0.08205009	      4.24974907	     12.36236530	     -8.70698930	      6.08805031	      3.28814818	      6.74140596	      6.50175272	     -1.66238694	     -8.00927853
      4.50000000	     -9.90503165	      0.86001423	      3.37093002	     -1.81713046	     -0.01914252	      0.42185016	     31.76787805	     -3.06751422	     -8.45443645	    -13.96299997	     -7.26966400	      1.29716523	     11.31050955	     -0.57918429	      4.14692426	     12.43013724	     -8.75356227	      6.19276685	      3.61784108	      6.91672336	      6.38447009	     -1.74141347	     -8.25483271
      4.50500000	     -9.89192742	      0.79414647	      3.75243181	     -1.81077622	     -0.01965829	      0.42207739	     31.45452632	     -3.13891893	     -8.91416916	    -12.35122171	     -7.12585367	      2.06128944	     11.11711437	     -0.97617161	      4.00044356	     12.57097569	     -8.83992514	      6.31538056	      3.96714648	      7.14177875	      6.36875926	     -1.79151465	     -8.47022057
      4.51000000	     -9.83238880	      0.74121085	      4.12216126	     -1.80438952	     -0.02013003	      0.42233043	     31.10465009	     -3.20414804	     -9.35464942	    -10.87561217	     -6.96488325	      2.77573856	     10.90069259	     -1.39784390	      3.86105433	     12.66571918	     -8.97412559	      6.41890142	      4.34334443	      7.39842708	      6.30932682	     -1.84842572	     -8.69296642
      4.51500000	     -9.78765280	      0.67554823	      4.46655416	     -1.79793188	     -0.02061699	      0.42261672	     30.78394924	     -3.23274545	     -9.74901137	     -9.53682974	     -6.84821536	      3.38277327	     10.65459099	     -1.78321487	      3.70393666	     12.74723708	     -9.15175752	      6.50956718	      4.72888495	      7.68094944	      6.28173109	     -1.88398092	     -8.89334720
      4.52000000	     -9.75402853	      0.60486450	      4.79741101	     -1.79142928	     -0.02111062	      0.42293847	     30.48792051	     -3.23942983	    -10.08362304	     -8.33927141	     -6.76941759	      3.88626407	     10.40797927	     -2.12967304	      3.53653340	     12.81782919	     -9.38049981	      6.59195070	      5.14491375	      8.00384162	      6.27651079	     -1.91230609	     -9.08698136
      4.52500000	     -9.72811673	      0.52234522	      5.11267008	     -1.78486724	     -0.02160476	      0.42327554	     30.21091600	     -3.22037475	    -10.36227440	     -7.28518360	     -6.72288780	      4.30609125	     10.17118533	     -2.44057785	      3.35324218	     12.87013877	     -9.66136698	      6.66717804	      5.59683771	      8.37242253	      6.29293598	     -1.92163054	     -9.27122588
      4.53000000	     -9.71153284	      0.42909657	      5.41355840	     -1.77825343	     -0.02209540	      0.42363647	     29.95460363	     -3.17956793	    -10.58234306	     -6.37860755	     -6.70494786	      4.66192266	      9.95560221	     -2.71224956	      3.15516066	     12.90659100	     -9.99636699	      6.73198812	      6.08516877	      8.78662288	      6.33079725	     -1.91659232	     -9.45141580
      4.53500000	     -9.70439713	      0.32528992	      5.69781314	     -1.77158848	     -0.02258323	      0.42401362	     29.71905603	     -3.11929713	    -10.75150543	     -5.62186097	     -6.70629382	      4.97988603	      9.77229147	     -2.94446098	      2.94404229	     12.92230014	    -10.38441249	      6.78453831	      6.60701836	      9.24680946	      6.38946284	     -1.89320343	     -9.62409214
      4.54000000	     -9.71607863	      0.21405303	      5.97047075	     -1.76486758	     -0.02307842	      0.42439226	     29.51252189	     -3.04891931	    -10.87390719	     -5.01608991	     -6.72214126	      5.26700366	      9.63906843	     -3.12790586	      2.72699235	     12.93951662	    -10.82787333	      6.81966566	      7.13875339	      9.73021960	      6.48071804	     -1.85638752	     -9.79826004
      4.54500000	     -9.70842826	      0.08713622	      6.18295967	     -1.75806769	     -0.02353497	      0.42485213	     29.31045986	     -2.93417617	    -10.96848788	     -4.58630867	     -6.72022513	      5.62873848	      9.54942708	     -3.30751736	      2.48588983	     12.84099703	    -11.31039140	      6.82556936	      7.73916742	     10.32038484	      6.56570326	     -1.79167168	     -9.90794608
      4.55000000	     -9.76392196	     -0.04040607	      6.45904356	     -1.75126768	     -0.02403126	      0.42522345	     29.16904363	     -2.85963258	    -11.03990226	     -4.28870410	     -6.77620383	      5.86083129	      9.51838831	     -3.38068632	      2.25992565	     12.92747046	    -11.87484020	      6.79547722	      8.23292418	     10.78168148	      6.72057263	     -1.73407163	    -10.10402253
      4.55500000	     -9.80123825	     -0.19532365	      6.67395196	     -1.74440519	     -0.02447533	      0.42565595	     29.03971580	     -2.73199879	    -11.15757245	     -4.16391951	     -6.87548048	      6.18048589	      9.56334470	     -3.44206423	      1.99899409	     12.86920042	    -12.48194849	      6.75365232	      8.83841801	     11.38527947	      6.86567428	     -1.63402275	    -10.23920038
      4.56000000	     -9.84962171	     -0.34740874	      6.86006423	     -1.73750048	     -0.02491189	      0.42612402	     28.94283964	     -2.59925408	    -11.24897758	     -4.20109481	     -7.01291413	      6.47638147	      9.65402053	     -3.47099487	      1.74613897	     12.81958654	    -13.13136182	      6.65911079	      9.40320576	     11.96739028	      7.02885761	     -1.52972153	    -10.35754806
      4.56500000	     -9.91412702	     -0.52880917	      7.02418058	     -1.73049964	     -0.02532917	      0.42660661	     28.87107390	     -2.43263639	    -11.34046901	     -4.36982451	     -7.23529123	      6.72107314	      9.76922577	     -3.46303645	      1.46717954	     12.77567119	    -13.81917405	      6.51505401	      9.93783309	     12.51936678	      7.22879156	     -1.38763364	    -10.46826033
      4.57000000	     -9.97068992	     -0.69948309	      7.15316321	     -1.72353772	     -0.02570697	      0.42714038	     28.83692795	     -2.26568819	    -11.45558499	     -4.71467732	     -7.55730330	      6.89339067	      9.92193132	     -3.42552701	      1.20048381	     12.67701969	    -14.56492605	      6.33821401	     10.51774192	     13.14813019	      7.40795261	     -1.24928867	    -10.55020371
